<?xml version="1.0" encoding="utf-8"?>
<!-- Generator: Adobe Illustrator 18.0.0, SVG Export Plug-In . SVG Version: 6.00 Build 0)  -->
<!DOCTYPE svg PUBLIC "-//W3C//DTD SVG 1.1//EN" "http://www.w3.org/Graphics/SVG/1.1/DTD/svg11.dtd" [
	<!ENTITY ns_extend "http://ns.adobe.com/Extensibility/1.0/">
	<!ENTITY ns_ai "http://ns.adobe.com/AdobeIllustrator/10.0/">
	<!ENTITY ns_graphs "http://ns.adobe.com/Graphs/1.0/">
	<!ENTITY ns_vars "http://ns.adobe.com/Variables/1.0/">
	<!ENTITY ns_imrep "http://ns.adobe.com/ImageReplacement/1.0/">
	<!ENTITY ns_sfw "http://ns.adobe.com/SaveForWeb/1.0/">
	<!ENTITY ns_custom "http://ns.adobe.com/GenericCustomNamespace/1.0/">
	<!ENTITY ns_adobe_xpath "http://ns.adobe.com/XPath/1.0/">
]>
<svg version="1.1" id="Layer_1" xmlns:x="&ns_extend;" xmlns:i="&ns_ai;" xmlns:graph="&ns_graphs;"
	 xmlns="http://www.w3.org/2000/svg" xmlns:xlink="http://www.w3.org/1999/xlink" x="0px" y="0px" viewBox="-115 0 326.5 97.8"
	 enable-background="new -115 0 326.5 97.8" xml:space="preserve">
<metadata>
	<sfw  xmlns="&ns_sfw;">
		<slices></slices>
		<sliceSourceBounds  width="326.5" height="97.8" y="2.2" x="-115" bottomLeftOrigin="true"></sliceSourceBounds>
	</sfw>
</metadata>
<title>Artboard 2</title>
<desc>Created with Sketch.</desc>
<g id="XMLID_2_">
	<path id="XMLID_4_" fill="#FFFFFF" d="M21.9,26.8h9.4v41.8h-9.4V50.9H6.1v17.7h-9.4V26.8h9.4v16h15.8V26.8z"/>
	<path id="XMLID_6_" fill="#FFFFFF" d="M50.7,27.7c0,1.6-0.5,2.9-1.6,3.9c-1.1,0.9-2.3,1.4-3.8,1.4s-2.7-0.5-3.8-1.4
		c-1.1-0.9-1.6-2.2-1.6-3.9c0-1.6,0.5-2.9,1.6-3.9c1.1-0.9,2.3-1.4,3.8-1.4s2.7,0.5,3.8,1.4C50.2,24.8,50.7,26.1,50.7,27.7z
		 M49.9,68.6h-9V36.9h9V68.6z"/>
	<path id="XMLID_9_" fill="#FFFFFF" d="M68,68.6c-2.1-4-4.1-8.7-6.3-14.1c-2.1-5.4-4.1-11.3-6-17.6h9.5c0.4,1.6,0.9,3.3,1.4,5.1
		c0.5,1.8,1.1,3.7,1.7,5.5c0.6,1.9,1.2,3.7,1.8,5.5c0.6,1.8,1.2,3.4,1.7,4.8c0.5-1.4,1.1-3.1,1.7-4.8c0.6-1.8,1.2-3.6,1.8-5.5
		c0.6-1.9,1.2-3.7,1.7-5.5c0.5-1.8,1-3.5,1.4-5.1h9.3c-1.9,6.4-3.9,12.2-6,17.6c-2.1,5.4-4.2,10.1-6.3,14.1H68z"/>
	<path id="XMLID_18_" fill="#FFFFFF" d="M90.2,53c0-2.8,0.4-5.3,1.3-7.4s2-3.9,3.4-5.3c1.4-1.4,3-2.5,4.9-3.2
		c1.8-0.7,3.7-1.1,5.6-1.1c4.5,0,8.1,1.4,10.7,4.1c2.6,2.8,3.9,6.8,3.9,12.2c0,0.5,0,1.1-0.1,1.7c0,0.6-0.1,1.2-0.1,1.7H99.4
		c0.2,1.8,1.1,3.3,2.6,4.4c1.5,1.1,3.6,1.6,6.2,1.6c1.6,0,3.3-0.2,4.9-0.5c1.6-0.3,2.9-0.7,3.9-1.1l1.2,7.3
		c-0.5,0.2-1.1,0.5-1.9,0.7c-0.8,0.2-1.7,0.5-2.7,0.6c-1,0.2-2,0.3-3.2,0.5c-1.1,0.1-2.3,0.2-3.4,0.2c-2.9,0-5.3-0.4-7.4-1.3
		c-2.1-0.8-3.9-2-5.2-3.5c-1.4-1.5-2.4-3.2-3.1-5.2C90.5,57.5,90.2,55.3,90.2,53z M111.3,49.5c0-0.8-0.2-1.5-0.4-2.2
		c-0.2-0.7-0.6-1.4-1-1.9c-0.5-0.6-1-1-1.7-1.4s-1.6-0.5-2.6-0.5c-1,0-1.9,0.2-2.6,0.5c-0.7,0.3-1.3,0.8-1.8,1.4
		c-0.5,0.6-0.9,1.2-1.1,2c-0.3,0.7-0.5,1.5-0.6,2.3H111.3z"/>
	<path id="XMLID_21_" fill="#FFFFFF" d="M179.2,47.7c0,3.6-0.5,6.7-1.6,9.4c-1.1,2.7-2.5,5-4.4,6.8c-1.8,1.8-4.1,3.2-6.6,4.1
		c-2.6,0.9-5.3,1.4-8.2,1.4c-2.9,0-5.5-0.5-8.1-1.4c-2.5-0.9-4.7-2.3-6.6-4.1c-1.9-1.8-3.4-4.1-4.5-6.8c-1.1-2.7-1.6-5.9-1.6-9.4
		s0.6-6.7,1.7-9.4c1.1-2.7,2.6-5,4.6-6.8c1.9-1.8,4.1-3.2,6.6-4.2c2.5-0.9,5.2-1.4,7.9-1.4c2.9,0,5.5,0.5,8.1,1.4
		c2.5,0.9,4.7,2.3,6.6,4.2c1.9,1.8,3.4,4.1,4.5,6.8C178.7,40.9,179.2,44.1,179.2,47.7z M147.3,47.7c0,2,0.3,3.9,0.8,5.5
		c0.5,1.6,1.2,3.1,2.2,4.3c0.9,1.2,2.1,2.1,3.5,2.7c1.4,0.6,2.9,1,4.7,1c1.7,0,3.3-0.3,4.7-1c1.4-0.6,2.6-1.6,3.5-2.7
		c0.9-1.2,1.7-2.6,2.2-4.3s0.8-3.5,0.8-5.5c0-2.1-0.3-3.9-0.8-5.6c-0.5-1.7-1.2-3.1-2.2-4.3c-0.9-1.2-2.1-2.1-3.5-2.7
		c-1.4-0.6-2.9-1-4.7-1c-1.8,0-3.3,0.3-4.7,1c-1.4,0.7-2.5,1.6-3.5,2.8c-0.9,1.2-1.7,2.6-2.2,4.3C147.6,43.8,147.3,45.7,147.3,47.7z
		"/>
	<path id="XMLID_24_" fill="#FFFFFF" d="M195,61.4c1.3,0,2.4-0.1,3.3-0.3c0.9-0.2,1.6-0.5,2.1-0.9c0.5-0.4,0.9-0.8,1.1-1.4
		c0.2-0.5,0.3-1.1,0.3-1.7c0-1.4-0.6-2.5-1.9-3.4c-1.3-0.9-3.5-1.9-6.6-2.9c-1.4-0.5-2.7-1-4.1-1.7c-1.4-0.6-2.6-1.4-3.7-2.4
		c-1.1-0.9-2-2.1-2.7-3.4c-0.7-1.3-1-3-1-4.9s0.4-3.7,1.1-5.2c0.7-1.5,1.7-2.9,3.1-4c1.3-1.1,2.9-1.9,4.8-2.5c1.9-0.6,4-0.9,6.4-0.9
		c2.8,0,5.2,0.3,7.3,0.9c2,0.6,3.7,1.3,5.1,2l-2.7,7.4c-1.2-0.6-2.5-1.1-3.9-1.6c-1.4-0.5-3.1-0.7-5.2-0.7c-2.3,0-3.9,0.3-4.9,0.9
		c-1,0.6-1.5,1.6-1.5,2.9c0,0.8,0.2,1.4,0.5,1.9c0.4,0.5,0.9,1,1.5,1.4c0.7,0.4,1.4,0.8,2.3,1.1c0.9,0.3,1.8,0.7,2.9,1.1
		c2.2,0.8,4.1,1.6,5.7,2.4c1.6,0.8,2.9,1.7,4,2.7c1.1,1,1.9,2.3,2.4,3.7c0.5,1.4,0.8,3.1,0.8,5.1c0,3.9-1.4,6.9-4.1,9.1
		c-2.7,2.2-6.9,3.2-12.4,3.2c-1.8,0-3.5-0.1-5-0.3c-1.5-0.2-2.8-0.5-4-0.8s-2.1-0.7-3-1c-0.8-0.4-1.5-0.7-2.1-1l2.7-7.5
		c1.2,0.7,2.8,1.3,4.6,1.8C190.1,61.2,192.4,61.4,195,61.4z"/>
</g>
<g id="XMLID_11_">
	<linearGradient id="XMLID_3_" gradientUnits="userSpaceOnUse" x1="-106.4246" y1="84.4739" x2="-106.4246" y2="13.2899">
		<stop  offset="0" style="stop-color:#FF9400"/>
		<stop  offset="1" style="stop-color:#FF6500"/>
	</linearGradient>
	<path id="XMLID_17_" fill="url(#XMLID_3_)" d="M-97.8,13.3l-9.8,5.7c-4.1,2.3-7.4,8.1-7.4,12.8v34.4c0,4.7,3.3,10.4,7.4,12.8
		l9.8,5.7V13.3z"/>
	<linearGradient id="XMLID_26_" gradientUnits="userSpaceOnUse" x1="-34.5828" y1="84.4738" x2="-34.5828" y2="13.2899">
		<stop  offset="0" style="stop-color:#FFBD01"/>
		<stop  offset="1" style="stop-color:#FFE201"/>
	</linearGradient>
	<path id="XMLID_16_" fill="url(#XMLID_26_)" d="M-33.4,18.9l-9.8-5.7v71.2l9.8-5.7c4.1-2.3,7.4-8.1,7.4-12.8V31.7
		C-26,27-29.3,21.3-33.4,18.9z"/>
	<g id="XMLID_14_">
		<g>
			<path id="XMLID_33_" fill="#FFA801" d="M-79.2,95.3l1.3,0.8c4.1,2.3,10.7,2.3,14.7,0l1.3-0.8v-37c0,0-2.5-4.3-8.7-4.3
				s-8.7,4.3-8.7,4.3V95.3z"/>
		</g>
	</g>
	<g id="XMLID_12_">
		<g>
			<path id="XMLID_34_" fill="#FF5400" d="M-63.1,1.8c-4.1-2.3-10.7-2.3-14.7,0l-1.3,0.8v36.4c0,0,2.5,4.3,8.7,4.3s8.7-4.3,8.7-4.3
				V2.5L-63.1,1.8z"/>
		</g>
	</g>
</g>
</svg>
